<svg xmlns="http://www.w3.org/2000/svg" width="16" height="15" viewBox="0 0 16 15">
    <path fill="#fff" d="M0 14.44V1.634c0-.321.248-.573.565-.573h2.892v-.49c0-.32.248-.572.565-.572.316 0 .564.252.564.573v.489h6.915v-.49c0-.32.248-.572.564-.572.317 0 .565.252.565.573v.489h2.796c.317 0 .565.252.565.573v12.792a.563.563 0 0 1-.565.573H.565A.569.569 0 0 1 0 14.44zM1.13 3.69h13.745V2.206H12.63v.308a.563.563 0 0 1-.565.573.563.563 0 0 1-.564-.573v-.308H4.586v.308a.563.563 0 0 1-.564.573.563.563 0 0 1-.565-.573v-.308H1.129zm0 10.176H14.86v-9.03H1.13zm11.5-5.829a.562.562 0 0 1-.565.573H3.94a.562.562 0 0 1-.565-.573c0-.321.248-.573.565-.573h8.126c.317 0 .565.252.565.573zm-4.063 2.768a.563.563 0 0 1-.565.573H3.94a.563.563 0 0 1-.565-.573c0-.322.248-.574.565-.574h4.063c.317 0 .565.252.565.574z" />
</svg>