<svg xmlns="http://www.w3.org/2000/svg" width="24" height="18" viewBox="0 0 24 18"><g><g><path fill="#502d75" d="M5.135 11.523c.426.43.426 1.126 0 1.556a1.083 1.083 0 0 1-1.543 0L.32 9.779a1.149 1.149 0 0 1-.072-.08l-.016-.022a1.147 1.147 0 0 1-.048-.065l-.012-.02A1.11 1.11 0 0 1 .13 9.52l-.007-.014a1.06 1.06 0 0 1-.039-.083l-.003-.01a1.1 1.1 0 0 1-.033-.091 1.152 1.152 0 0 1-.026-.104l-.004-.028c-.004-.026-.009-.052-.012-.08a1.064 1.064 0 0 1 .012-.297l.004-.029c.006-.03.015-.061.023-.092l.003-.012c.01-.03.02-.06.033-.09 0-.004.002-.007.003-.01a1.12 1.12 0 0 1 .039-.083l.007-.015c.013-.025.028-.049.043-.072l.012-.02c.015-.023.032-.045.048-.066l.016-.021a1.08 1.08 0 0 1 .072-.08l3.272-3.3a1.084 1.084 0 0 1 1.543 0c.426.43.426 1.126 0 1.555L3.725 7.9h12.638c.603 0 1.091.492 1.091 1.1 0 .608-.488 1.1-1.09 1.1H3.723zM24 9c0 4.963-4.003 9-8.924 9a8.9 8.9 0 0 1-7.399-3.967 1.106 1.106 0 0 1 .293-1.528c.5-.34 1.178-.208 1.515.296a6.725 6.725 0 0 0 5.591 2.998c3.718 0 6.742-3.05 6.742-6.8 0-3.748-3.024-6.799-6.742-6.799a6.723 6.723 0 0 0-5.6 3.013 1.085 1.085 0 0 1-1.514.3 1.106 1.106 0 0 1-.297-1.528A8.897 8.897 0 0 1 15.076 0C19.996 0 24 4.037 24 9z"/></g></g></svg>