<svg xmlns="http://www.w3.org/2000/svg" width="18" height="20" viewBox="0 0 18 20">
    <g>
        <g>
            <path fill="#fff" d="M17.996 7.765c.018.261-.02.54-.112.785-.197.522-.56.992-1.058 1.248-.524.27-1.128.32-1.667.06a1.464 1.464 0 0 1-.764-.996c-.091-.435-.025-.88.257-1.229.293-.36.795-.422 1.21-.28.224.077.37.303.304.547-.06.224-.311.388-.537.31a1.042 1.042 0 0 0-.16-.041c-.015 0-.031-.001-.047 0a.344.344 0 0 0-.026.001.822.822 0 0 0-.032.009.336.336 0 0 0-.037.02l-.003.002a.537.537 0 0 0-.037.044.66.66 0 0 0-.027.05l-.004.013a.919.919 0 0 0-.028.11v.003a1.13 1.13 0 0 0-.002.132l.002.033c.01.053.022.105.039.156.01.024.032.072.042.09l.037.06.05.06.046.045c.018.01.077.052.098.064l.037.019a1.297 1.297 0 0 0 .212.058c.013 0 .028.003.036.003a1.435 1.435 0 0 0 .242-.006 1.483 1.483 0 0 0 .193-.051l.068-.025.008-.004c.058-.029.116-.06.171-.096.022-.014.117-.085.108-.075.075-.064.145-.132.209-.207.012-.014.054-.07.053-.067l.017-.024a1.888 1.888 0 0 0 .141-.254c0-.002.037-.102.044-.126.017-.061.033-.123.043-.186.002-.028.005-.057.005-.085a1.455 1.455 0 0 0-.004-.17v-.01a2.383 2.383 0 0 0-.114-.385l-.023-.048a2.41 2.41 0 0 0-.206-.358l-.005-.007-.015-.02a1.952 1.952 0 0 0-.27-.273l-.007-.005a2.233 2.233 0 0 0-.476-.268 2.976 2.976 0 0 0-.5-.135c-.027-.005-.115-.017-.123-.02a4.054 4.054 0 0 0-.323-.022 4.962 4.962 0 0 0-.728.034l-.06.007a6.447 6.447 0 0 0-.85.182 7.811 7.811 0 0 0-.957.335l-.083.036a7.248 7.248 0 0 0-1.201.683 4.933 4.933 0 0 0-.096.07l-.032.024a4.374 4.374 0 0 0-.128.11c.328.477.523 1.032.575 1.602a3.184 3.184 0 0 1 2.652.531 3.309 3.309 0 0 1 1.313 2.159 3.35 3.35 0 0 1-.567 2.474 3.243 3.243 0 0 1-2.646 1.383c-.475 0-.936-.104-1.36-.304a3.351 3.351 0 0 1-.48 1 3.243 3.243 0 0 1-2.646 1.384c-.485 0-.956-.109-1.388-.318a3.355 3.355 0 0 1-.483 1.01A3.244 3.244 0 0 1 3.25 20a3.188 3.188 0 0 1-1.896-.623C-.102 18.309-.437 16.23.61 14.744c.22-.312.49-.58.793-.793a3.376 3.376 0 0 1-.27-4.206c.217-.307.48-.57.777-.782a3.321 3.321 0 0 1-.85-1.748 3.35 3.35 0 0 1 .567-2.474 3.243 3.243 0 0 1 2.645-1.384c.683 0 1.338.215 1.895.623A3.307 3.307 0 0 1 7.51 6.372a3.185 3.185 0 0 1 1.273-.049 4.641 4.641 0 0 1-.131-.208c-.574-.97-.824-2.086-.796-3.211.012-.499.05-1.005.16-1.492.106-.464.29-.974.662-1.285.184-.154.436-.184.617 0l.029.033c.236.19.461.39.656.623.364.435.645.932.793 1.485a4.78 4.78 0 0 1 .135 1.556 10.374 10.374 0 0 1-.256 1.605 11.957 11.957 0 0 1 2.793-1.618c.94-.396 1.936-.677 2.954-.745.475-.031.872.429.872.89 0 .509-.398.858-.872.89a5.96 5.96 0 0 0-.281.026 8.942 8.942 0 0 0-1.784.484c.58-.064 1.172-.049 1.73.119.747.224 1.403.738 1.712 1.481.11.264.199.52.22.809zM8.792 3.996a5.446 5.446 0 0 0 .288 1.015l.026.065.021.05a4.745 4.745 0 0 0 .487.857c.11-.417.216-.836.298-1.26.026-.135.05-.27.071-.405l.02-.144.016-.137c.024-.25.037-.502.027-.753a4.504 4.504 0 0 0-.024-.333l-.02-.133a3.63 3.63 0 0 0-.14-.537c-.008-.026-.057-.149-.047-.128a3.332 3.332 0 0 0-.359-.626l-.008-.011-.001-.002a4.016 4.016 0 0 0-.364-.401l-.038-.035-.013.025a2.284 2.284 0 0 0-.037.081l-.003.007a3.694 3.694 0 0 0-.14.486 5.246 5.246 0 0 0-.066.369v.004l-.01.087a7.927 7.927 0 0 0-.017.172 7.638 7.638 0 0 0-.001 1.477v.007l.001.006c.01.066.02.132.033.197zM8.265 7.9c-.502 0-.978.232-1.293.625a3.41 3.41 0 0 1-.12.171c-.465.754-.28 1.76.439 2.286.285.209.62.32.97.32.501 0 .977-.233 1.292-.626a3.672 3.672 0 0 1 .12-.17c.465-.754.28-1.76-.439-2.287a1.632 1.632 0 0 0-.97-.319zm-5.46 5.162c.285.209.62.32.97.32a1.66 1.66 0 0 0 1.292-.626 3.672 3.672 0 0 1 .12-.17c.465-.755.28-1.76-.438-2.287a1.634 1.634 0 0 0-.97-.319c-.537 0-1.044.265-1.356.71a1.725 1.725 0 0 0 .382 2.372zm-.18-6.11c.072.449.311.841.673 1.106.285.209.62.32.97.32a1.66 1.66 0 0 0 1.292-.626 3.672 3.672 0 0 1 .12-.171c.218-.351.3-.766.234-1.18a1.694 1.694 0 0 0-.672-1.106 1.632 1.632 0 0 0-.97-.319c-.537 0-1.044.265-1.356.709-.26.369-.363.819-.291 1.267zm2.272 9.453a1.693 1.693 0 0 0-.672-1.106 1.633 1.633 0 0 0-.97-.32c-.537 0-1.044.266-1.356.71a1.725 1.725 0 0 0 .382 2.373c.285.208.62.319.97.319.536 0 1.043-.265 1.356-.71.26-.368.363-.818.29-1.266zm4.517-2.076a1.695 1.695 0 0 0-.673-1.106 1.633 1.633 0 0 0-.97-.319 1.66 1.66 0 0 0-1.292.625 4.393 4.393 0 0 1-.12.171c-.465.754-.28 1.76.438 2.286.286.209.621.32.97.32.537 0 1.044-.266 1.356-.71.26-.368.363-.818.291-1.267zm2.843-3.505a1.66 1.66 0 0 0-1.292.625 3.672 3.672 0 0 1-.12.171c-.466.754-.28 1.76.438 2.286.286.209.621.32.97.32.537 0 1.044-.266 1.356-.71.26-.368.363-.818.291-1.267a1.694 1.694 0 0 0-.673-1.105 1.633 1.633 0 0 0-.97-.32z" />
        </g>
    </g>
</svg>