<svg xmlns="http://www.w3.org/2000/svg" width="20" height="20" viewBox="0 0 20 20"><g><g><path fill="#aaa" d="M20 5.519v8.962A5.526 5.526 0 0 1 14.48 20H5.52a5.525 5.525 0 0 1-5.52-5.52V5.52a5.525 5.525 0 0 1 5.52-5.52h8.961A5.525 5.525 0 0 1 20 5.52zm-1.775 8.962V5.519a3.75 3.75 0 0 0-3.745-3.745H5.52A3.749 3.749 0 0 0 1.774 5.52v8.962a3.749 3.749 0 0 0 3.745 3.744h8.962a3.749 3.749 0 0 0 3.744-3.744zM15.153 10A5.16 5.16 0 0 1 10 15.153 5.16 5.16 0 0 1 4.846 10 5.16 5.16 0 0 1 10 4.846 5.16 5.16 0 0 1 15.153 10zm-1.774 0a3.383 3.383 0 0 0-3.38-3.379A3.383 3.383 0 0 0 6.622 10 3.383 3.383 0 0 0 10 13.378 3.383 3.383 0 0 0 13.379 10zm2.91-6.277c.243.241.382.577.382.92 0 .342-.139.678-.381.92a1.314 1.314 0 0 1-.92.382c-.342 0-.678-.14-.92-.381a1.313 1.313 0 0 1-.382-.921 1.306 1.306 0 0 1 1.301-1.301c.344 0 .68.138.92.38z"/></g></g></svg>