<svg xmlns="http://www.w3.org/2000/svg" width="18" height="18" viewBox="0 0 18 18"><g><g><path fill="#502d75" d="M17.708 17.734a.996.996 0 0 1-.68.265.992.992 0 0 1-.709-.291l-4.473-4.49a7.641 7.641 0 0 1-4.316 1.316c-4.153 0-7.532-3.26-7.532-7.268C-.002 3.26 3.378 0 7.53 0c4.153 0 7.532 3.26 7.532 7.267a7.09 7.09 0 0 1-1.767 4.672l4.44 4.456a.926.926 0 0 1-.027 1.34zM1.963 7.266c0 2.962 2.498 5.371 5.567 5.371 3.07 0 5.568-2.409 5.568-5.37 0-2.962-2.498-5.372-5.568-5.372-3.07 0-5.567 2.41-5.567 5.371z"/></g></g></svg>