<svg xmlns="http://www.w3.org/2000/svg" width="12" height="16" viewBox="0 0 12 16"><g><g><path fill="#969696" d="M12 5.624a5.353 5.353 0 0 1-.846 2.882L6.512 15.77a.506.506 0 0 1-.425.228h-.004a.508.508 0 0 1-.425-.222L.896 8.582A5.354 5.354 0 0 1 0 5.624C0 2.522 2.69 0 6 0c3.308 0 6 2.523 6 5.625zm-.997 0C11.003 3.04 8.757.93 6 .93S.993 3.04.993 5.624c0 .873.265 1.725.752 2.464l4.33 6.542 4.22-6.605c.461-.723.708-1.554.708-2.4zM9 5.624c0 1.524-1.303 2.812-3 2.812-1.676 0-3-1.27-3-2.812 0-1.55 1.346-2.813 3-2.813s3 1.263 3 2.813zm-.997 0c0-1.034-.9-1.881-2.003-1.881-1.103 0-2.007.847-2.007 1.881 0 1.037.898 1.88 2.007 1.88 1.126 0 2.003-.859 2.003-1.88z"/></g></g></svg>