<svg xmlns="http://www.w3.org/2000/svg" width="13" height="13" viewBox="0 0 13 13"><g><g><path fill="#502d75" d="M12.993 10.26a.63.63 0 0 1-.192.55l-1.83 1.818c-.083.092-.19.17-.324.234a1.335 1.335 0 0 1-.392.124l-.083.007a1.88 1.88 0 0 1-.179.007c-.174 0-.456-.03-.846-.09-.39-.06-.867-.206-1.431-.44-.565-.234-1.204-.586-1.92-1.054-.716-.468-1.477-1.11-2.285-1.928A15.078 15.078 0 0 1 1.915 7.67 12.946 12.946 0 0 1 .897 6.066 8.649 8.649 0 0 1 .319 4.73a7.103 7.103 0 0 1-.262-1.032 3.422 3.422 0 0 1-.055-.682c.01-.165.014-.257.014-.276.018-.128.06-.259.124-.392a1.03 1.03 0 0 1 .234-.324L2.204.193A.606.606 0 0 1 2.644 0c.12 0 .225.034.317.103.092.07.17.154.234.255l1.472 2.796a.67.67 0 0 1 .07.482.858.858 0 0 1-.235.44l-.674.675a.232.232 0 0 0-.048.09.341.341 0 0 0-.02.103c.036.193.118.413.247.66.11.221.28.49.509.806.23.317.555.682.977 1.095.413.423.78.75 1.101.985.321.234.59.406.805.516.216.11.381.177.496.2l.172.034a.33.33 0 0 0 .09-.02.23.23 0 0 0 .089-.048l.784-.8a.842.842 0 0 1 .578-.22c.156 0 .28.028.372.083h.013l2.656 1.57c.193.12.308.27.344.455z"/></g></g></svg>