<svg xmlns="http://www.w3.org/2000/svg" width="12" height="12" viewBox="0 0 12 12"><g><g><path fill="#fff" d="M11.83 4.964a.47.47 0 0 0 .125-.486.435.435 0 0 0-.377-.308l-3.454-.272a.432.432 0 0 1-.364-.273L6.39.273a.432.432 0 0 0-.4-.274.431.431 0 0 0-.395.282L4.282 3.659a.434.434 0 0 1-.36.28l-3.448.34a.436.436 0 0 0-.37.315.471.471 0 0 0 .132.484l2.642 2.359a.47.47 0 0 1 .142.446l-.76 3.562a.467.467 0 0 0 .17.47c.143.106.33.113.478.016l2.945-1.92a.413.413 0 0 1 .447-.004l2.979 1.862a.412.412 0 0 0 .476-.026.468.468 0 0 0 .162-.473l-.821-3.546a.469.469 0 0 1 .134-.45z"/></g></g></svg>