<svg xmlns="http://www.w3.org/2000/svg" width="16" height="17" viewBox="0 0 16 17"><g><g><path fill="#bb2e27" d="M15.616 10.439c-.338 3.444-3.093 6.213-6.496 6.53-4.022.374-7.452-2.622-7.85-6.516H.561a.567.567 0 0 1-.484-.85L1.662 6.82a.556.556 0 0 1 .97 0l1.585 2.781a.567.567 0 0 1-.485.851h-.617c.4 2.907 3.072 5.088 6.136 4.633 2.267-.336 4.105-2.148 4.49-4.436.577-3.424-2.024-6.405-5.3-6.405a5.304 5.304 0 0 0-2.967.904c-.409.274-.975.22-1.275-.173a.935.935 0 0 1 .21-1.337 7.11 7.11 0 0 1 3.139-1.19V1.393h-.735A.46.46 0 0 1 6.356.93V.463A.46.46 0 0 1 6.813 0h3.406a.46.46 0 0 1 .458.463v.468a.46.46 0 0 1-.458.463H9.41v1.065c3.753.513 6.6 3.96 6.206 7.98zm.262-6.36l-.365.4a.454.454 0 0 1-.646.026l-1.38-1.292a.468.468 0 0 1-.025-.655l.365-.4a.453.453 0 0 1 .646-.026l1.38 1.292a.468.468 0 0 1 .025.655zm-3.027 5.653H8.42V5.198c2.362 0 4.43 1.773 4.43 4.534z"/></g></g></svg>