<svg xmlns="http://www.w3.org/2000/svg" width="15" height="19" viewBox="0 0 15 19"><g><g><path fill="#c8c8c8" d="M1.085 4.626h12.83l-.676 13.457c-.022.512-.469.917-1.012.917H2.772c-.543 0-.989-.405-1.012-.917zm8.554 11.031a.4.4 0 0 0 .411.388h.658a.4.4 0 0 0 .412-.388V7.969c0-.215-.185-.389-.412-.389h-.658a.4.4 0 0 0-.411.389zm-2.88-7.688v7.688a.4.4 0 0 0 .412.388h.658a.4.4 0 0 0 .411-.388V7.969c0-.215-.184-.389-.411-.389H7.17a.4.4 0 0 0-.411.389zM3.88 15.657a.4.4 0 0 0 .412.388h.658a.4.4 0 0 0 .41-.388V7.969a.4.4 0 0 0-.41-.389h-.658a.4.4 0 0 0-.412.389zM15 1.578v1.885H0V1.578c0-.331.284-.6.635-.6h4.362V.2c0-.11.095-.2.212-.2H9.79c.117 0 .212.09.212.2v.778h4.362c.351 0 .636.269.636.6z"/></g></g></svg>