<svg xmlns="http://www.w3.org/2000/svg" width="24" height="13" viewBox="0 0 24 13"><g><g><path fill="#aaa" d="M20.654 8.277c.796.744 1.637 1.444 2.351 2.264.316.364.615.74.844 1.162.323.6.03 1.262-.533 1.298L19.818 13c-.903.072-1.623-.275-2.228-.866-.484-.472-.933-.975-1.398-1.463-.191-.2-.391-.388-.63-.536-.478-.296-.892-.205-1.165.271-.278.485-.341 1.022-.368 1.563-.038.788-.287.995-1.114 1.031-1.769.08-3.447-.176-5.006-1.03-1.375-.753-2.441-1.815-3.369-3.018C2.734 6.608 1.35 4.034.107 1.388-.173.79.032.472.719.46 1.86.44 3.002.44 4.144.458c.464.007.771.262.95.681.618 1.453 1.373 2.836 2.322 4.117.252.341.51.682.877.923.405.266.714.178.905-.255.121-.274.174-.57.202-.864.09-1.01.102-2.019-.057-3.026C9.246 1.406 8.876 1 8.221.88 7.886.819 7.936.7 8.098.517c.281-.315.546-.51 1.073-.51h3.954c.622.116.76.384.846.984l.003 4.203c-.007.232.121.921.558 1.075.35.109.58-.158.79-.37.946-.963 1.622-2.099 2.225-3.276.268-.517.499-1.055.722-1.591.165-.4.425-.595.894-.586l3.805.003c.113 0 .227.002.336.02.642.104.817.368.62.967-.313.94-.92 1.724-1.514 2.511-.634.84-1.313 1.653-1.942 2.498-.579.772-.533 1.161.186 1.832z"/></g></g></svg>