<svg xmlns="http://www.w3.org/2000/svg" width="21" height="16" viewBox="0 0 21 16"><g><g><path fill="#502d75" d="M20.437 6.205v3.788c0 2.403-.354 3.79-1.183 4.64-.809.828-2.059 1.166-4.315 1.166H5.497C.85 15.8 0 13.844 0 9.993V6.205c0-1.987 0-3.424.716-4.399C1.451.807 2.836.4 5.497.4h9.442c2.602 0 3.964.383 4.701 1.322.741.944.797 2.388.797 4.484zm-6.963 1.79a.714.714 0 0 0-.355-.625L8.831 4.986a.622.622 0 0 0-.646.023.719.719 0 0 0-.317.604v4.783c0 .247.12.476.318.604a.629.629 0 0 0 .647.022l4.287-2.4a.713.713 0 0 0 .354-.626z"/></g></g></svg>