<svg version="1.1" id="Layer_1" xmlns="http://www.w3.org/2000/svg" xmlns:xlink="http://www.w3.org/1999/xlink" x="0px" y="0px"
	 viewBox="-49 141 512 512" style="enable-background:new -49 141 512 512;" xml:space="preserve">
<style type="text/css">
	.st0{fill:#FFFFFF;}
	.st1{fill:#E6E6E6;}
	.st2{fill:#3A5BBC;}
	.st3{fill:#518EF8;}
</style>
<g>
	<g>
		<path class="st0" d="M198.4,385.9c0-34.7-29-62.9-64.7-62.9S69,351.2,69,385.9h21.6c0-22.8,19.4-41.3,43.1-41.3
			s43.1,18.5,43.1,41.3s-19.4,41.3-43.1,41.3h-20.1v21.6h20.1c23.8,0,43.1,18.5,43.1,41.3c0,22.8-19.4,41.3-43.1,41.3
			s-43.1-18.5-43.1-41.3H69c0,34.7,29,62.9,64.7,62.9s64.7-28.2,64.7-62.9c0-21.7-11.3-40.8-28.5-52.1
			C187.1,426.7,198.4,407.5,198.4,385.9z"/>
		<polygon class="st0" points="240.3,359.7 251.4,378.2 294,352.7 294,542.2 315.6,542.2 315.6,314.7 		"/>
	</g>
	<path class="st1" d="M406.6,151.8H7.4c-12.4,0-22.5,10.1-22.5,22.5v74.9h444.3v-74.9C429.1,161.9,419.1,151.8,406.6,151.8z
		 M99.2,196.9c-6,0-10.8-4.8-10.8-10.8c0-6,4.8-10.8,10.8-10.8c6,0,10.8,4.8,10.8,10.8C109.9,192.1,105.1,196.9,99.2,196.9z
		 M317.7,196.9c-6,0-10.8-4.8-10.8-10.8c0-6,4.8-10.8,10.8-10.8s10.8,4.8,10.8,10.8C328.4,192.1,323.6,196.9,317.7,196.9z"/>
	<path class="st2" d="M462.5,254.5l-34.1,177.7L442.3,617c1,13.6-9.7,25.1-23.3,25.1H-5c-13.6,0-24.3-11.6-23.3-25.1l13.9-184.8
		l-34.1-177.7c-3.2-16.7,9.6-32.2,26.6-32.2h457.7C452.9,222.3,465.7,237.8,462.5,254.5z"/>
	<path class="st3" d="M419,642.2H-5c-13.6,0-24.3-11.6-23.3-25.1l13.9-184.8H230h198.4L442.3,617C443.4,630.6,432.6,642.2,419,642.2
		z"/>
	<rect x="194.7" y="322.6" class="st0" width="24.6" height="219.3"/>
	
		<rect x="194.7" y="322.6" transform="matrix(-1.836970e-16 1 -1 -1.836970e-16 639.2266 225.2266)" class="st0" width="24.6" height="219.3"/>
</g>
</svg>
