<svg xmlns="http://www.w3.org/2000/svg" width="68" height="68" viewBox="0 0 68 68"><g><g><path fill="#1e1e1e" d="M63.658 19.01A14.831 14.831 0 0 1 68 29.456v37.41c0 .626-.507 1.134-1.133 1.134h-20.4a1.133 1.133 0 0 1-1.134-1.133v-11.01l-.65-1.041a16.384 16.384 0 0 1-1.412-14.547L16.667 50.518a5.668 5.668 0 0 1-7.325-3.251l-4.26-11.059A5.656 5.656 0 0 1 0 30.6V5.667A5.674 5.674 0 0 1 5.667 0H51a5.674 5.674 0 0 1 5.667 5.667v6.34zM56.667 30.6a5.67 5.67 0 0 1-.479 2.267l1.966-.76a3.4 3.4 0 0 0 1.952-4.394l-3.44-8.929zm-54.4 0a3.4 3.4 0 0 0 3.4 3.4H39.64l-4.426-4.834a6.046 6.046 0 0 1 8.726-8.362l10.382 10.383c.042-.193.068-.39.077-.587V12.896l-.01-.026h.01V5.667a3.4 3.4 0 0 0-3.4-3.4H5.667a3.4 3.4 0 0 0-3.4 3.4zm5.267 5.666l1.193 3.103 8.059-3.103zm35.657 1.6l-1.473-1.606H23.073v.006L9.545 41.48l1.912 4.972a3.4 3.4 0 0 0 4.395 1.95zm22.542 18.8H47.6v9.067h18.133zm0-27.21a12.55 12.55 0 0 0-3.678-8.84l-3.671-3.68 3.836 9.96a5.667 5.667 0 0 1-3.25 7.322l-1.162.454L62 38.865 60.4 40.468l-18.06-18.056a3.78 3.78 0 0 0-5.458 5.227l9.288 10.132c.333.364.393.9.148 1.329a14.133 14.133 0 0 0 .287 14.514l.492.786h18.637zM7.48 15.867a2.947 2.947 0 0 1-2.947-2.946V7.48A2.947 2.947 0 0 1 7.48 4.533h5.44a2.946 2.946 0 0 1 2.947 2.947v5.44a2.946 2.946 0 0 1-2.947 2.947zM6.8 12.92c0 .375.305.68.68.68h5.44a.68.68 0 0 0 .68-.68v-1.587h-2.267V9.066H13.6V7.48a.68.68 0 0 0-.68-.68H7.48a.68.68 0 0 0-.68.68v1.586h2.267v2.267H6.8zm-1.133 6.347H10.2v2.266H5.667zm0 6.8H10.2v2.266H5.667zm20.4 0H30.6v2.266h-4.533zm-13.6-6.8H17v2.266h-4.533zm6.8 0H23.8v2.266h-4.533zm6.8 0H30.6v2.266h-4.533zM47.6 5.667h2.267v3.4H47.6zm-4.533 0h2.266v3.4h-2.266zm-4.534 0H40.8v3.4h-2.267zm-4.533 0h2.267v3.4H34zm15.867 53.266h2.266V61.2h-2.266z"/></g></g></svg>