<svg xmlns="http://www.w3.org/2000/svg" width="65" height="65" viewBox="0 0 65 65"><g><g><path fill="#1e1e1e" d="M64.882 15.405a3.25 3.25 0 0 1-.325 2.513l-.541.943c.511.301.685.958.39 1.473l-2.708 4.69.942.543a3.25 3.25 0 0 1 1.191 4.441L59.5 37.516a1.086 1.086 0 0 1-1.484.4 1.083 1.083 0 0 1-.347-1.526l4.333-7.508a1.082 1.082 0 0 0-.4-1.484l-.943-.542-9.305 16.152-4.126 5.016-1.084 1.809a3.249 3.249 0 0 1-2.827 1.604 3.334 3.334 0 0 1-.856-.109l-2.523 3.196a2.167 2.167 0 0 1-3.705-.552l-.671-1.701-.401.66A2.167 2.167 0 0 1 31.14 52l-.379-4.398-2.653 7.995c-.15.44-.564.738-1.03.736a.944.944 0 0 1-.336-.086c-.563-.19-.868-.8-.682-1.365l2.665-7.996a2.167 2.167 0 0 1 4.213.51l.368 4.333.39-.661a2.167 2.167 0 0 1 3.868.304l.682 1.71 2.437-2.989a3.25 3.25 0 0 1-.173-3.51l1.083-2.026 2.275-6.077 9.207-15.958-.943-.541a1.083 1.083 0 1 1 1.083-1.874l.943.541 2.751-4.69a1.083 1.083 0 0 1 1.473-.39l.542-.943a3.25 3.25 0 0 1 5.957.78zm-4.625 1.246l1.885 1.083.542-.942a1.14 1.14 0 0 0 .108-.824 1.083 1.083 0 0 0-.51-.66 1.136 1.136 0 0 0-.823-.108 1.08 1.08 0 0 0-.66.508zM48.84 42.564l-3.412-1.972-1.538 4.117 1.603.932.542.314zm-6.055 6.522a1.084 1.084 0 0 0 1.56-.347l.542-.932-1.885-1.083-.542.942c-.273.487-.132 1.1.325 1.42zM58.74 25.772l-3.747-2.166-8.666 15.015 3.748 2.166zm3.25-5.622l-3.748-2.167-2.166 3.748 3.748 2.167zM17.092 48.544a1.083 1.083 0 0 1 1.528 1.527l-3.824 3.836a2.165 2.165 0 0 1-1.538.628 2.167 2.167 0 0 1-1.527-.628L9.434 51.61a1.082 1.082 0 0 1 0-1.539 1.083 1.083 0 0 1 1.528 0l2.296 2.297zm-12.76 2.914a9.208 9.208 0 0 1 14.732-7.366 1.083 1.083 0 1 1-1.3 1.733 6.978 6.978 0 0 0-4.224-1.409 7.041 7.041 0 0 0-7.041 7.042 7.041 7.041 0 1 0 14.081 0 1.083 1.083 0 1 1 2.167 0 9.208 9.208 0 1 1-18.414 0zm7.583-42.791v2.166h27.079a1.083 1.083 0 0 1 0 2.167H10.832a1.083 1.083 0 0 1-1.083-1.083V7.583c0-.598.485-1.083 1.083-1.083h28.162a1.083 1.083 0 0 1 0 2.167zm23.83 6.5a1.083 1.083 0 1 1 0 2.166H14.08a1.083 1.083 0 0 1 0-2.166zm6.498 7.583a1.083 1.083 0 0 1 0 2.166h-23.83a1.083 1.083 0 1 1 0-2.166zm-10.83 7.583c0 .6-.486 1.083-1.084 1.083H8.665a1.082 1.082 0 1 1 0-2.166H30.33c.598 0 1.083.485 1.083 1.083zm10.83-1.083a1.083 1.083 0 0 1 0 2.166h-7.581a1.083 1.083 0 1 1 0-2.166zM8.665 36.833a1.083 1.083 0 1 1 0-2.167h10.832a1.083 1.083 0 0 1 0 2.167zm15.165 0a1.083 1.083 0 0 1 0-2.167h7.582a1.084 1.084 0 0 1 0 2.167zm24.913 13c.598 0 1.083.485 1.083 1.083V61.75a3.25 3.25 0 0 1-3.25 3.25H3.25A3.25 3.25 0 0 1 0 61.75V3.25A3.25 3.25 0 0 1 3.25 0h43.326a3.25 3.25 0 0 1 3.25 3.25v20.345a1.084 1.084 0 0 1-2.166 0V3.25c0-.598-.485-1.083-1.084-1.083H3.25c-.599 0-1.084.485-1.084 1.083v58.5c0 .598.485 1.083 1.084 1.083h43.326c.599 0 1.084-.485 1.084-1.083V50.916c0-.598.484-1.083 1.083-1.083z"/></g></g></svg>