<svg xmlns="http://www.w3.org/2000/svg" width="65" height="65" viewBox="0 0 65 65"><g><g><path fill="#1e1e1e" d="M11.172 58.652c0 .334-.136.662-.373.898a1.279 1.279 0 0 1-.897.372 1.28 1.28 0 0 1-.898-.372 1.279 1.279 0 0 1-.372-.898c0-.334.136-.661.372-.897.237-.237.564-.372.898-.372.334 0 .661.135.898.372.236.236.372.563.372.897zm48.81-34.53a1.275 1.275 0 0 1-1.271 1.27 1.28 1.28 0 0 1-.898-.373 1.279 1.279 0 0 1-.372-.897c0-.334.136-.662.372-.898s.564-.372.898-.372a1.275 1.275 0 0 1 1.27 1.27zM65 1.269V63.73c0 .701-.569 1.27-1.27 1.27H25.406c-1.546 0-3.039-.56-4.204-1.576l-1.51-1.316A3.815 3.815 0 0 1 15.996 65H3.809a3.813 3.813 0 0 1-3.81-3.81V40.499c0-2.1 1.71-3.808 3.81-3.808h12.187c1.304 0 2.457.66 3.144 1.662l5.395-5.395L18.298 9.68a1.27 1.27 0 0 1 .898-1.555L31.23 4.9v-3.63c0-.701.569-1.27 1.27-1.27L63.73 0A1.27 1.27 0 0 1 65 1.27zM17.266 61.191V40.498c0-.7-.57-1.27-1.27-1.27h-4.824v14.625a1.27 1.27 0 0 1-2.54 0V39.23H3.809c-.7 0-1.27.57-1.27 1.27V61.19c0 .7.57 1.27 1.27 1.27h12.188c.7 0 1.27-.57 1.27-1.27zm9.776-28.688c.098.13.171.282.213.445l1.313 5.137h2.548l-4.949-18.324a1.27 1.27 0 0 1 .898-1.558 3.422 3.422 0 0 0 2.417-4.186 1.27 1.27 0 0 1 .897-1.555l.851-.228V7.53l-10.15 2.72zm1.873-12.308l2.315 8.574V18.056a5.949 5.949 0 0 1-2.315 2.139zm22.332 40.489a1.78 1.78 0 0 0-1.778-1.778h-9.716a1.27 1.27 0 0 1 0-2.539H53.8a1.78 1.78 0 0 0 1.777-1.777 1.78 1.78 0 0 0-1.777-1.777H39.753a1.27 1.27 0 0 1 0-2.54h16.763a1.78 1.78 0 0 0 1.778-1.777 1.78 1.78 0 0 0-1.778-1.777H39.753a1.27 1.27 0 0 1 0-2.54h12.79a1.78 1.78 0 0 0 1.777-1.776 1.78 1.78 0 0 0-1.777-1.778l-24.96-.001a1.27 1.27 0 0 1-1.23-.956l-1.006-3.933-5.542 5.543v17.559l3.065 2.673c.703.613 1.604.95 2.536.95H49.47a1.78 1.78 0 0 0 1.778-1.776zM62.46 2.539l-28.692.001v35.546h2.48V12.814c0-.701.569-1.27 1.27-1.27a3.422 3.422 0 0 0 3.418-3.418c0-.7.568-1.27 1.27-1.27h11.816c.701 0 1.27.57 1.27 1.27a3.422 3.422 0 0 0 3.418 3.418c.7 0 1.27.569 1.27 1.27v5.08a1.27 1.27 0 0 1-2.54 0v-3.947a5.976 5.976 0 0 1-4.551-4.551h-9.55a5.976 5.976 0 0 1-4.552 4.551v24.14h6.94a6.084 6.084 0 0 1-3.689-5.587 6.083 6.083 0 0 1 6.076-6.076A6.083 6.083 0 0 1 54.19 32.5a6.084 6.084 0 0 1-3.688 5.586h2.04a4.321 4.321 0 0 1 4.317 4.317 4.29 4.29 0 0 1-.385 1.777h.042c.318 0 .627.035.925.1V29.836a1.27 1.27 0 1 1 2.54 0v16.09c.534.718.851 1.608.851 2.571a4.323 4.323 0 0 1-3.174 4.162c.292.582.458 1.237.458 1.932a4.321 4.321 0 0 1-4.316 4.316H53.4a4.29 4.29 0 0 1 0 3.555h9.06zm-10.81 29.96a3.54 3.54 0 0 0-3.536-3.536 3.54 3.54 0 0 0-3.537 3.537 3.54 3.54 0 0 0 3.537 3.536 3.54 3.54 0 0 0 3.537-3.536z"/></g></g></svg>