<svg xmlns="http://www.w3.org/2000/svg" width="61" height="61" viewBox="0 0 61 61"><g><g><path fill="#1e1e1e" d="M61 3.812v43.209a3.813 3.813 0 0 1-3.813 3.812h-2.541v-2.541h2.541c.702 0 1.271-.57 1.271-1.271V3.812c0-.702-.569-1.27-1.27-1.27H3.811a1.27 1.27 0 0 0-1.27 1.27v43.209c0 .701.569 1.27 1.27 1.27h30.5v2.542h-30.5A3.813 3.813 0 0 1 0 47.021V3.812A3.813 3.813 0 0 1 3.812 0h53.375A3.813 3.813 0 0 1 61 3.812zM54.646 13.98v11.438h-2.542V15.144a7.647 7.647 0 0 1-6.249-6.248h-30.71a7.647 7.647 0 0 1-6.25 6.248V35.69a7.646 7.646 0 0 1 6.25 6.248H30.5v2.542H13.98a1.27 1.27 0 0 1-1.272-1.27 5.084 5.084 0 0 0-5.083-5.084 1.27 1.27 0 0 1-1.27-1.27V13.978c0-.702.568-1.271 1.27-1.271a5.083 5.083 0 0 0 5.083-5.083c0-.702.57-1.271 1.271-1.271h33.042c.702 0 1.27.569 1.27 1.27a5.083 5.083 0 0 0 5.084 5.084c.702 0 1.27.57 1.27 1.271zm1.27 24.146a11.423 11.423 0 0 1-3.812 8.517V59.73a1.27 1.27 0 0 1-2.065.992l-5.56-4.447-5.56 4.447a1.27 1.27 0 0 1-2.065-.992v-13.08a11.409 11.409 0 0 1-3.812-8.524c0-6.317 5.12-11.438 11.437-11.438 6.317 0 11.438 5.121 11.438 11.438zM44.48 49.562a11.39 11.39 0 0 1-5.083-1.189v8.711l4.289-3.43a1.271 1.271 0 0 1 1.588 0l4.29 3.43v-8.716a11.405 11.405 0 0 1-5.084 1.194zm8.896-11.437a8.906 8.906 0 0 0-8.896-8.896 8.896 8.896 0 1 0 8.896 8.896zm-8.896-24.146v5.083a1.27 1.27 0 0 1-1.27 1.271H17.791a1.27 1.27 0 0 1-1.271-1.27v-5.084c0-.702.569-1.271 1.27-1.271h25.417c.702 0 1.271.57 1.271 1.27zm-2.542 1.27H19.062v2.542h22.875zM15.25 24.146h2.542v2.542H15.25zm5.083 0h2.542v2.542h-2.542zM15.25 29.23H30.5v2.541H15.25zm35.583 8.896a6.362 6.362 0 0 1-6.354 6.354 6.354 6.354 0 1 1 6.354-6.354zm-2.541 0a3.812 3.812 0 1 0-7.625 0 3.812 3.812 0 0 0 7.625 0zM6.354 41.937h2.542v2.542H6.354zm45.75-35.583h2.542v2.541h-2.542zm-45.75 0h2.542v2.541H6.354z"/></g></g></svg>