<svg xmlns="http://www.w3.org/2000/svg" width="35" height="24" viewBox="0 0 35 24"><g><g><path fill="#fff" d="M7.683 8.727c4.224 0 7.649 3.42 7.649 7.636 0 4.218-3.425 7.637-7.65 7.637C3.46 24 .035 20.58.035 16.363L0 15.273C0 6.838 6.849 0 15.298 0v4.363A10.864 10.864 0 0 0 7.57 7.56c-.397.396-.76.818-1.087 1.262a7.73 7.73 0 0 1 1.199-.094zm19.668 0c4.224 0 7.649 3.42 7.649 7.636C35 20.581 31.575 24 27.35 24s-7.649-3.42-7.649-7.637l-.034-1.09C19.668 6.838 26.518 0 34.966 0v4.363a10.864 10.864 0 0 0-7.727 3.196c-.397.396-.76.818-1.087 1.262.391-.062.791-.094 1.2-.094z"/></g></g></svg>