<svg xmlns="http://www.w3.org/2000/svg" width="12" height="12" viewBox="0 0 12 12"><defs><clipPath id="uwd0a"><path fill="#fff" d="M11.83 4.964a.47.47 0 0 0 .124-.486.435.435 0 0 0-.377-.308l-3.453-.272a.432.432 0 0 1-.364-.273L6.39.273a.431.431 0 0 0-.4-.274.431.431 0 0 0-.395.282L4.282 3.659a.432.432 0 0 1-.36.28l-3.448.34a.436.436 0 0 0-.371.315.47.47 0 0 0 .132.483l2.643 2.36a.47.47 0 0 1 .142.446l-.76 3.562a.467.467 0 0 0 .17.47c.142.106.33.112.478.016l2.945-1.92a.413.413 0 0 1 .447-.004l2.979 1.862a.412.412 0 0 0 .476-.026.467.467 0 0 0 .162-.473l-.821-3.546a.469.469 0 0 1 .133-.45z"/></clipPath></defs><g><g><path fill="none" stroke="#fff" stroke-miterlimit="50" stroke-width="2" d="M11.83 4.964a.47.47 0 0 0 .124-.486.435.435 0 0 0-.377-.308l-3.453-.272a.432.432 0 0 1-.364-.273L6.39.273a.431.431 0 0 0-.4-.274.431.431 0 0 0-.395.282L4.282 3.659a.432.432 0 0 1-.36.28l-3.448.34a.436.436 0 0 0-.371.315.47.47 0 0 0 .132.483l2.643 2.36a.47.47 0 0 1 .142.446l-.76 3.562a.467.467 0 0 0 .17.47c.142.106.33.112.478.016l2.945-1.92a.413.413 0 0 1 .447-.004l2.979 1.862a.412.412 0 0 0 .476-.026.467.467 0 0 0 .162-.473l-.821-3.546a.469.469 0 0 1 .133-.45z" clip-path="url(&quot;#uwd0a&quot;)"/></g></g></svg>