<svg xmlns="http://www.w3.org/2000/svg" width="10" height="10" viewBox="0 0 10 10"><g><g><path fill="#fff" d="M9.883 4.124c.11-.1.151-.26.105-.404a.365.365 0 0 0-.318-.256l-2.908-.226a.364.364 0 0 1-.306-.227L5.301.227a.363.363 0 0 0-.337-.228.363.363 0 0 0-.332.234L3.527 3.04a.363.363 0 0 1-.303.232L.32 3.554a.366.366 0 0 0-.312.263.387.387 0 0 0 .111.4l2.225 1.961c.104.091.15.234.12.37l-.64 2.96a.385.385 0 0 0 .144.39c.12.088.277.094.402.014l2.48-1.595a.351.351 0 0 1 .377-.004L7.735 9.86a.35.35 0 0 0 .4-.021.385.385 0 0 0 .137-.393L7.581 6.5a.386.386 0 0 1 .112-.373z"/></g></g></svg>