<svg xmlns="http://www.w3.org/2000/svg" width="230" height="187" viewBox="0 0 230 187"><defs><clipPath id="kx2ya"><path fill="#fff" d="M115-21c63.513 0 115 51.487 115 115s-51.487 115-115 115S0 157.513 0 94 51.487-21 115-21z"/></clipPath></defs><g><g opacity=".3"><path fill="none" stroke="#fff" stroke-miterlimit="50" stroke-width="4" d="M115-21c63.513 0 115 51.487 115 115s-51.487 115-115 115S0 157.513 0 94 51.487-21 115-21z" clip-path="url(&quot;#kx2ya&quot;)"/></g><g opacity=".3"><path fill="#fff" d="M224.701 78.468A1.53 1.53 0 0 1 223.173 80h-18.345a1.53 1.53 0 0 1-1.53-1.532 1.53 1.53 0 0 1 1.53-1.53h7.643v-15.46c-3.338-.34-6.464-1.713-8.904-4.076-5.762-5.578-6.153-19.858-.709-25.897l.456-.505h21.37l.456.505c5.446 6.039 5.058 20.318-.704 25.897-2.443 2.363-5.57 3.735-8.907 4.076v15.46h7.643a1.53 1.53 0 0 1 1.53 1.53zm-19.008-23.267c4.478 4.336 12.14 4.33 16.617-.002 4.457-4.312 4.902-15.991.979-21.137h-18.58c-3.923 5.146-3.474 16.825.984 21.139zm1.063-1.1c-2.227-2.157-3.305-6.588-3.183-10.851h20.853c.126 4.264-.952 8.694-3.18 10.849-3.699 3.584-10.789 3.584-14.49.001z"/></g></g></svg>